PathFileType	4	(X/Y/Z)	/Users/itak/Documents/Research/Walk-IL/dataset/trc/00121_00007.trc
DataRate	CameraRate	NumFrames	NumMarkers	Units	OrigDataRate	OrigDataStartFrame	OrigNumFrames
100.000000	100.000000	4	53	mm	100.000000	180	722
Frame#	Time	RPSI			LPSI			L3			STRN			T10			C7			CLAV			RBAK			LBAK			LSHO			LUPA			LAEL			LAOL			LWTS			LWPS			LFRA			LIFD			LHPS			LHTS			RSHO			RUPA			RAEL			RAOL			RWTS			RWPS			RFRA			RIFD			RHTS			RHPS			RBHD			LFHD			RFHD			LBHD			LHIP			RHIP			RASI			LASI			LKNE			LTHI			LANK			LTIP			LTOE			LMT1			LMT5			LHEE			RKNE			RTHI			RANK			RTIP			RTOE			RMT1			RMT5			RHEE			
		X1	Y1	Z1	X2	Y2	Z2	X3	Y3	Z3	X4	Y4	Z4	X5	Y5	Z5	X6	Y6	Z6	X7	Y7	Z7	X8	Y8	Z8	X9	Y9	Z9	X10	Y10	Z10	X11	Y11	Z11	X12	Y12	Z12	X13	Y13	Z13	X14	Y14	Z14	X15	Y15	Z15	X16	Y16	Z16	X17	Y17	Z17	X18	Y18	Z18	X19	Y19	Z19	X20	Y20	Z20	X21	Y21	Z21	X22	Y22	Z22	X23	Y23	Z23	X24	Y24	Z24	X25	Y25	Z25	X26	Y26	Z26	X27	Y27	Z27	X28	Y28	Z28	X29	Y29	Z29	X30	Y30	Z30	X31	Y31	Z31	X32	Y32	Z32	X33	Y33	Z33	X34	Y34	Z34	X35	Y35	Z35	X36	Y36	Z36	X37	Y37	Z37	X38	Y38	Z38	X39	Y39	Z39	X40	Y40	Z40	X41	Y41	Z41	X42	Y42	Z42	X43	Y43	Z43	X44	Y44	Z44	X45	Y45	Z45	X46	Y46	Z46	X47	Y47	Z47	X48	Y48	Z48	X49	Y49	Z49	X50	Y50	Z50	X51	Y51	Z51	X52	Y52	Z52	X53	Y53	Z53	

181	1.8	836.2171630859375	1092.5625	736.5097045898438	712.5481567382812	1085.40380859375	676.486083984375	764.803466796875	1123.559204101562	706.93994140625	861.6569213867188	1317.79345703125	508.0250244140625	735.0433959960938	1276.334594726562	731.781005859375	731.519287109375	1566.209228515625	677.6258544921875	838.65576171875	1453.205078125	532.2010498046875	781.80810546875	1386.70849609375	777.7164306640625	640.89794921875	1541.37255859375	630.2733764648438	631.7408447265625	1521.52783203125	521.4225463867188	565.6190795898438	1388.373291015625	499.5171508789062	564.0173950195312	1172.35107421875	455.9631652832031	574.9931640625	1149.5751953125	541.8519287109375	697.6094360351562	955.5936279296875	348.6209106445312	637.5774536132812	905.3384399414062	392.0681762695312	586.82421875	1063.553466796875	419.6463623046875	762.6660766601562	778.4288330078125	305.2059631347656	668.7672119140625	842.9816284179688	350.8638610839844	714.6923217773438	876.0647583007812	308.3524780273438	914.7333374023438	1553.991088867188	727.2172241210938	958.4928588867188	1485.228149414062	782.6433715820312	974.8629760742188	1198.436889648438	837.9644165039062	890.857666015625	1188.41357421875	787.3404541015625	1048.089599609375	940.3081665039062	748.7993774414062	1029.76220703125	935.4860229492188	829.2313842773438	1002.260864257812	1124.9873046875	837.4747314453125	1045.659912109375	744.2755126953125	747.017822265625	1069.501831054688	830.062255859375	744.0399169921875	1054.35693359375	832.9847412109375	816.5195922851562	833.4306640625	1754.189453125	637.9341430664062	744.9453735351562	1763.322265625	435.7980346679688	868.7901611328125	1790.522583007812	465.809326171875	703.5524291992188	1732.431884765625	611.6771240234375	655.0298461914062	988.2348022460938	549.1864624023438	1003.0205078125	1005.147338867188	667.6928100585938	982.3721923828125	1072.196533203125	572.9707641601562	739.2965698242188	1051.983642578125	464.5930786132812	713.7921142578125	488.299072265625	633.90673828125	675.6398315429688	636.2747192382812	605.6981201171875	585.8133544921875	79.03402709960938	940.9335327148438	602.6494140625	295.658447265625	798.4662475585938	796.4602661132812	34.25448608398438	854.4380493164062	753.772216796875	56.80648040771484	923.2779541015625	665.9314575195312	41.05661773681641	854.1317749023438	574.9051513671875	124.6326217651367	1023.861938476562	1049.359252929688	548.6434936523438	501.5052795410156	1042.292358398438	810.1326293945312	593.2200317382812	1089.214111328125	25.62125205993652	465.7743530273438	1075.51806640625	414.5783081054688	492.9972534179688	1086.517578125	92.42374420166016	242.9101409912109	1032.703369140625	68.78679656982422	283.8688049316406	1136.05322265625	49.41215133666992	343.5849609375	1027.521850585938	23.56354522705078	511.2550659179688	
182	1.81	844.3707885742188	1093.282836914062	725.358642578125	720.2559814453125	1085.641723632812	666.6827392578125	772.7433471679688	1123.98681640625	696.7376708984375	867.3990478515625	1318.849731445312	497.5161437988281	742.7490844726562	1276.27099609375	722.3486938476562	738.5570068359375	1566.317016601562	669.83935546875	844.4320068359375	1454.054565429688	522.8418579101562	789.9871826171875	1386.387817382812	768.57275390625	647.61669921875	1541.608154296875	623.3570556640625	637.2349853515625	1522.158813476562	514.2825927734375	571.0106201171875	1388.773803710938	493.0055541992188	569.0318603515625	1172.5283203125	450.7181701660156	580.961669921875	1150.338989257812	536.7012329101562	699.2587280273438	952.8624267578125	344.865234375	639.2848510742188	903.94873046875	389.8038940429688	590.5110473632812	1063.110229492188	415.4639587402344	761.5440673828125	774.2828979492188	303.271240234375	668.9141235351562	840.7230834960938	349.0602722167969	714.8148803710938	872.5806274414062	305.5442810058594	922.2703857421875	1553.994262695312	717.6688842773438	966.6200561523438	1485.027221679688	772.29833984375	984.0797729492188	1197.955688476562	825.8117065429688	899.5556640625	1187.957275390625	775.9172973632812	1056.31298828125	939.7871704101562	736.0410766601562	1038.614379882812	935.0451049804688	816.6267700195312	1011.4267578125	1124.576293945312	824.9769287109375	1053.517333984375	743.7415771484375	734.5039672851562	1077.502319335938	829.4810791015625	731.2348022460938	1062.938720703125	832.4915771484375	803.8322143554688	840.2782592773438	1754.908203125	628.8463134765625	749.7205200195312	1763.680908203125	427.5947570800781	873.92529296875	1790.767578125	456.2826843261719	710.1158447265625	1733.291137695312	603.9598388671875	661.9205932617188	987.9051513671875	540.409912109375	1010.814819335938	1007.069641113281	654.770751953125	989.0183715820312	1073.797241210938	560.2001953125	744.9036865234375	1052.403076171875	455.0478515625	720.9579467773438	486.8789672851562	620.2451782226562	683.008544921875	635.5325927734375	594.0001220703125	586.9111328125	84.52225494384766	937.0282592773438	607.7582397460938	299.3745422363281	789.69140625	795.9708862304688	34.25465393066406	853.9202880859375	754.3232421875	58.81494903564453	921.11181640625	666.0538940429688	40.36043930053711	853.7626342773438	577.4808349609375	134.5575103759766	1017.46875	1054.308349609375	550.049560546875	487.4837951660156	1048.135864257812	812.024658203125	578.50244140625	1090.303466796875	24.75374221801758	464.9079284667969	1079.856323242188	415.0888671875	481.1525268554688	1085.334716796875	84.58712768554688	239.3281555175781	1032.01416015625	62.97983932495117	281.8388061523438	1136.1015625	44.74834442138672	341.1653137207031	1028.986938476562	24.80191993713379	510.9871520996094	
183	1.82	852.3109741210938	1094.175048828125	714.0960693359375	727.8065795898438	1086.133056640625	656.8795776367188	780.5128173828125	1124.7001953125	686.5447998046875	872.9876098632812	1320.21142578125	486.9558715820312	750.3084716796875	1276.460571289062	712.8534545898438	745.5197143554688	1566.647338867188	661.9638061523438	850.1123046875	1455.224365234375	513.4022216796875	798.0772705078125	1386.334594726562	759.2713012695312	654.259033203125	1542.099975585938	616.3195190429688	642.645263671875	1523.075439453125	507.1107482910156	576.3399658203125	1389.536010742188	486.4443969726562	574.087158203125	1173.067626953125	445.5794982910156	586.9663696289062	1151.528198242188	531.6213989257812	700.701904296875	950.2539672851562	341.5225219726562	640.7650146484375	902.8632202148438	388.044677734375	594.1505126953125	1063.005615234375	411.5145263671875	759.8948364257812	770.1494140625	302.0379028320312	668.7599487304688	838.6592407226562	347.92138671875	714.5880737304688	869.1730346679688	303.2853393554688	929.6962890625	1554.28369140625	708.0147094726562	974.6596069335938	1485.158813476562	761.8099365234375	993.2749633789062	1197.790283203125	813.4140014648438	908.2135620117188	1187.832763671875	764.3018798828125	1064.515502929688	939.58154296875	722.968017578125	1047.52978515625	934.9403076171875	803.71826171875	1020.594604492188	1124.490600585938	812.2023315429688	1061.278198242188	743.5106811523438	721.7460327148438	1085.44091796875	829.193603515625	718.1218872070312	1071.534057617188	832.3218383789062	790.8530883789062	847.0469970703125	1755.885131835938	619.6885375976562	754.4051513671875	1764.253295898438	419.3441467285156	878.9489135742188	1791.228881835938	446.6869812011719	716.593505859375	1734.405151367188	596.1874389648438	668.6828002929688	987.8171997070312	531.6077880859375	1018.485595703125	1009.292724609375	641.8604736328125	995.4895629882812	1075.687133789062	547.4437866210938	750.4136962890625	1053.048217773438	445.5101623535156	728.261474609375	485.4950256347656	605.5262451171875	690.5064086914062	634.8405151367188	581.7119140625	588.4837036132812	90.56981658935547	932.565185546875	613.2976684570312	303.5316467285156	780	795.470458984375	34.18617630004883	853.2638549804688	755.1398315429688	61.02180099487305	918.4007568359375	666.2208862304688	39.58637237548828	853.5624389648438	580.91162109375	145.3199462890625	1009.888000488281	1059.15625	551.4735717773438	473.9775085449219	1053.821411132812	814.09375	564.054931640625	1091.49755859375	24.04707336425781	464.3519592285156	1084.146728515625	415.6867980957031	469.8450012207031	1084.547729492188	77.76457977294922	236.5680541992188	1031.748413085938	58.158203125	280.4448547363281	1136.544799804688	40.97920608520508	339.3900756835938	1030.594360351562	25.9159049987793	510.9295654296875	
184	1.83	860.11474609375	1095.161376953125	702.7772827148438	735.2410888671875	1086.8173828125	647.2048950195312	788.1779174804688	1125.63134765625	676.4450073242188	878.3801879882812	1321.788452148438	476.3675842285156	757.8115234375	1276.8564453125	703.373046875	752.41357421875	1567.165771484375	654.0010986328125	855.6764526367188	1456.637573242188	503.8709411621094	806.1032104492188	1386.504516601562	749.8263549804688	660.8155517578125	1542.801391601562	609.1708984375	647.9725341796875	1524.237915039062	499.9247741699219	581.575439453125	1390.621337890625	479.8538208007812	579.1314697265625	1173.92724609375	440.5547180175781	592.908203125	1153.111694335938	526.5972290039062	701.9693603515625	947.790283203125	338.5972595214844	642.0535888671875	902.0904541015625	386.7659301757812	597.7269287109375	1063.212280273438	407.7941284179688	757.80126953125	766.086181640625	301.5185852050781	668.3633422851562	836.8320922851562	347.4227905273438	714.0742797851562	865.880859375	301.5809020996094	937.0228881835938	1554.818725585938	698.21533203125	982.6286010742188	1485.587280273438	751.1464233398438	1002.422302246094	1197.914306640625	800.814208984375	916.81982421875	1188.016357421875	752.5359497070312	1072.699340820312	939.68603515625	709.5718994140625	1056.511352539062	935.1475830078125	790.49658203125	1029.74462890625	1124.701293945312	799.1887817382812	1068.972778320312	743.5767211914062	708.7012939453125	1093.3330078125	829.1974487304688	704.6717529296875	1080.1640625	832.4606323242188	777.5518188476562	853.7192993164062	1757.051025390625	610.4700317382812	758.9856567382812	1765.004028320312	411.0601196289062	883.84375	1791.865844726562	437.0411682128906	722.96826171875	1735.71142578125	588.3680419921875	675.3017578125	987.941650390625	522.9046020507812	1026.035766601562	1011.637756347656	628.9488525390625	1001.768676757812	1077.726440429688	534.722412109375	755.7512817382812	1053.870849609375	436.07177734375	735.6436157226562	484.156494140625	589.75830078125	698.0692138671875	634.181884765625	568.8615112304688	590.6795043945312	97.17056274414062	927.4736328125	619.2725219726562	308.0673217773438	769.306396484375	795.0490112304688	33.97873687744141	852.4126586914062	756.3013916015625	63.45438003540039	915.0281982421875	666.509765625	38.86021423339844	853.4527587890625	585.2870483398438	156.8214569091797	1000.973999023438	1063.78271484375	552.7050170898438	461.1457824707031	1059.401000976562	816.1244506835938	549.9835205078125	1092.693115234375	23.50898170471191	463.9525451660156	1088.220825195312	416.1953735351562	459.1367492675781	1083.979248046875	71.92405700683594	234.4279632568359	1031.7333984375	54.20963668823242	279.5057373046875	1137.20458984375	38.12711715698242	338.0836791992188	1032.253051757812	26.85276985168457	510.9757385253906	
